<?xml version="1.0" encoding="utf-8"?>
<!-- Generator: Adobe Illustrator 19.1.0, SVG Export Plug-In . SVG Version: 6.00 Build 0)  -->
<!DOCTYPE svg PUBLIC "-//W3C//DTD SVG 1.1//EN" "http://www.w3.org/Graphics/SVG/1.1/DTD/svg11.dtd">
<svg version="1.1" id="Layer_1" xmlns="http://www.w3.org/2000/svg" xmlns:xlink="http://www.w3.org/1999/xlink" x="0px" y="0px"
	 viewBox="0 0 600 356" enable-background="new 0 0 600 356" xml:space="preserve">
<path fill="#AB824F" d="M600,352.2c0,2.1-1.7,3.8-3.8,3.8H4.8c-2.1,0-3.8-1.7-3.8-3.8V147.8c0-2.1,1.7-3.8,3.8-3.8h591.5
	c2.1,0,3.8,1.7,3.8,3.8V352.2z"/>
<path fill="#DEB778" d="M600,343.2c0,2.1-1.7,3.8-3.8,3.8H4.8c-2.1,0-3.8-1.7-3.8-3.8V142.8c0-2.1,1.7-3.8,3.8-3.8h591.5
	c2.1,0,3.8,1.7,3.8,3.8V343.2z"/>
<path fill="#D1A164" d="M416,176H153.1c-4.1,0-7.1,3.6-7.1,7.7v123.9v1.9c0,4.1,2.9,7.5,7.1,7.5H416c4.1,0,7-3.3,7-7.5v-1.9V183.7
	C423,179.6,420.1,176,416,176z"/>
<path fill="#515656" d="M433,169.5c0,4.1-3.4,7.5-7.5,7.5h-263c-4.1,0-7.5-3.4-7.5-7.5V7.5c0-4.1,3.4-7.5,7.5-7.5h263
	c4.1,0,7.5,3.4,7.5,7.5V169.5z"/>
<path fill="#D8E3E6" d="M433,308H155V183.7c0-4.1,3.3-7.7,7.5-7.7h262.9c4.1,0,7.6,3.6,7.6,7.7V308z"/>
<path fill="#515656" d="M227,220.7c0,2.4-1.9,4.3-4.3,4.3h-27.4c-2.4,0-4.3-1.9-4.3-4.3v-6.4c0-2.4,1.9-4.3,4.3-4.3h27.4
	c2.4,0,4.3,1.9,4.3,4.3V220.7z"/>
<path fill="#515656" d="M398,220.7c0,2.4-1.9,4.3-4.3,4.3h-27.4c-2.4,0-4.3-1.9-4.3-4.3v-6.4c0-2.4,1.9-4.3,4.3-4.3h27.4
	c2.4,0,4.3,1.9,4.3,4.3V220.7z"/>
<path fill="#515656" d="M215,241.7c0,2.4-1.9,4.3-4.3,4.3h-15.4c-2.4,0-4.3-1.9-4.3-4.3v-6.4c0-2.4,1.9-4.3,4.3-4.3h15.4
	c2.4,0,4.3,1.9,4.3,4.3V241.7z"/>
<path fill="#515656" d="M243,241.7c0,2.4-1.9,4.3-4.3,4.3h-15.4c-2.4,0-4.3-1.9-4.3-4.3v-6.4c0-2.4,1.9-4.3,4.3-4.3h15.4
	c2.4,0,4.3,1.9,4.3,4.3V241.7z"/>
<path fill="#515656" d="M369,241.7c0,2.4-1.9,4.3-4.3,4.3h-15.4c-2.4,0-4.3-1.9-4.3-4.3v-6.4c0-2.4,1.9-4.3,4.3-4.3h15.4
	c2.4,0,4.3,1.9,4.3,4.3V241.7z"/>
<path fill="#515656" d="M397,241.7c0,2.4-1.9,4.3-4.3,4.3h-15.4c-2.4,0-4.3-1.9-4.3-4.3v-6.4c0-2.4,1.9-4.3,4.3-4.3h15.4
	c2.4,0,4.3,1.9,4.3,4.3V241.7z"/>
<path fill="#515656" d="M341,241.7c0,2.4-1.9,4.3-4.3,4.3h-85.4c-2.4,0-4.3-1.9-4.3-4.3v-6.4c0-2.4,1.9-4.3,4.3-4.3h85.4
	c2.4,0,4.3,1.9,4.3,4.3V241.7z"/>
<path fill="#515656" d="M208,199.7c0,2.4-1.9,4.3-4.3,4.3h-6.4c-2.4,0-4.3-1.9-4.3-4.3v-6.4c0-2.4,1.9-4.3,4.3-4.3h6.4
	c2.4,0,4.3,1.9,4.3,4.3V199.7z"/>
<path fill="#515656" d="M226,199.7c0,2.4-1.9,4.3-4.3,4.3h-6.4c-2.4,0-4.3-1.9-4.3-4.3v-6.4c0-2.4,1.9-4.3,4.3-4.3h6.4
	c2.4,0,4.3,1.9,4.3,4.3V199.7z"/>
<path fill="#515656" d="M245,199.7c0,2.4-1.9,4.3-4.3,4.3h-6.4c-2.4,0-4.3-1.9-4.3-4.3v-6.4c0-2.4,1.9-4.3,4.3-4.3h6.4
	c2.4,0,4.3,1.9,4.3,4.3V199.7z"/>
<path fill="#515656" d="M264,199.7c0,2.4-1.9,4.3-4.3,4.3h-6.4c-2.4,0-4.3-1.9-4.3-4.3v-6.4c0-2.4,1.9-4.3,4.3-4.3h6.4
	c2.4,0,4.3,1.9,4.3,4.3V199.7z"/>
<path fill="#515656" d="M283,199.7c0,2.4-1.9,4.3-4.3,4.3h-6.4c-2.4,0-4.3-1.9-4.3-4.3v-6.4c0-2.4,1.9-4.3,4.3-4.3h6.4
	c2.4,0,4.3,1.9,4.3,4.3V199.7z"/>
<path fill="#515656" d="M301,199.7c0,2.4-1.9,4.3-4.3,4.3h-6.4c-2.4,0-4.3-1.9-4.3-4.3v-6.4c0-2.4,1.9-4.3,4.3-4.3h6.4
	c2.4,0,4.3,1.9,4.3,4.3V199.7z"/>
<path fill="#515656" d="M320,199.7c0,2.4-1.9,4.3-4.3,4.3h-6.4c-2.4,0-4.3-1.9-4.3-4.3v-6.4c0-2.4,1.9-4.3,4.3-4.3h6.4
	c2.4,0,4.3,1.9,4.3,4.3V199.7z"/>
<path fill="#515656" d="M339,199.7c0,2.4-1.9,4.3-4.3,4.3h-6.4c-2.4,0-4.3-1.9-4.3-4.3v-6.4c0-2.4,1.9-4.3,4.3-4.3h6.4
	c2.4,0,4.3,1.9,4.3,4.3V199.7z"/>
<path fill="#515656" d="M358,199.7c0,2.4-1.9,4.3-4.3,4.3h-6.4c-2.4,0-4.3-1.9-4.3-4.3v-6.4c0-2.4,1.9-4.3,4.3-4.3h6.4
	c2.4,0,4.3,1.9,4.3,4.3V199.7z"/>
<path fill="#515656" d="M377,199.7c0,2.4-1.9,4.3-4.3,4.3h-6.4c-2.4,0-4.3-1.9-4.3-4.3v-6.4c0-2.4,1.9-4.3,4.3-4.3h6.4
	c2.4,0,4.3,1.9,4.3,4.3V199.7z"/>
<path fill="#515656" d="M245,220.7c0,2.4-1.9,4.3-4.3,4.3h-6.4c-2.4,0-4.3-1.9-4.3-4.3v-6.4c0-2.4,1.9-4.3,4.3-4.3h6.4
	c2.4,0,4.3,1.9,4.3,4.3V220.7z"/>
<path fill="#515656" d="M264,220.7c0,2.4-1.9,4.3-4.3,4.3h-6.4c-2.4,0-4.3-1.9-4.3-4.3v-6.4c0-2.4,1.9-4.3,4.3-4.3h6.4
	c2.4,0,4.3,1.9,4.3,4.3V220.7z"/>
<path fill="#515656" d="M283,220.7c0,2.4-1.9,4.3-4.3,4.3h-6.4c-2.4,0-4.3-1.9-4.3-4.3v-6.4c0-2.4,1.9-4.3,4.3-4.3h6.4
	c2.4,0,4.3,1.9,4.3,4.3V220.7z"/>
<path fill="#515656" d="M301,220.7c0,2.4-1.9,4.3-4.3,4.3h-6.4c-2.4,0-4.3-1.9-4.3-4.3v-6.4c0-2.4,1.9-4.3,4.3-4.3h6.4
	c2.4,0,4.3,1.9,4.3,4.3V220.7z"/>
<path fill="#515656" d="M320,220.7c0,2.4-1.9,4.3-4.3,4.3h-6.4c-2.4,0-4.3-1.9-4.3-4.3v-6.4c0-2.4,1.9-4.3,4.3-4.3h6.4
	c2.4,0,4.3,1.9,4.3,4.3V220.7z"/>
<path fill="#515656" d="M339,220.7c0,2.4-1.9,4.3-4.3,4.3h-6.4c-2.4,0-4.3-1.9-4.3-4.3v-6.4c0-2.4,1.9-4.3,4.3-4.3h6.4
	c2.4,0,4.3,1.9,4.3,4.3V220.7z"/>
<path fill="#515656" d="M358,220.7c0,2.4-1.9,4.3-4.3,4.3h-6.4c-2.4,0-4.3-1.9-4.3-4.3v-6.4c0-2.4,1.9-4.3,4.3-4.3h6.4
	c2.4,0,4.3,1.9,4.3,4.3V220.7z"/>
<path fill="#515656" d="M395,199.7c0,2.4-1.9,4.3-4.3,4.3h-6.4c-2.4,0-4.3-1.9-4.3-4.3v-6.4c0-2.4,1.9-4.3,4.3-4.3h6.4
	c2.4,0,4.3,1.9,4.3,4.3V199.7z"/>
<rect x="170" y="15" fill="#333333" width="248" height="146"/>
<ellipse fill="#D1A164" cx="76.7" cy="259.9" rx="31.9" ry="21.7"/>
<path fill="#969FA1" d="M433,309.5c0,4.1-3.5,7.5-7.6,7.5H162.5c-4.1,0-7.5-3.3-7.5-7.5V308h278V309.5z"/>
<path fill="#C2CDCF" d="M331,289.2c0,2.1-1.7,3.8-3.8,3.8h-67.5c-2.1,0-3.8-1.7-3.8-3.8v-28.5c0-2.1,1.7-3.8,3.8-3.8h67.5
	c2.1,0,3.8,1.7,3.8,3.8V289.2z"/>
<rect x="469" y="180" fill="#F27777" width="90" height="22"/>
<rect x="469" y="202" fill="#FFFFFF" width="90" height="94"/>
<rect x="469" y="296" fill="#C1DEE6" width="90" height="12"/>
<rect x="469" y="219" fill="#CEE8F0" width="90" height="4"/>
<rect x="469" y="238" fill="#CEE8F0" width="90" height="4"/>
<rect x="469" y="257" fill="#CEE8F0" width="90" height="4"/>
<rect x="469" y="276" fill="#CEE8F0" width="90" height="3"/>
<polyline fill="none" stroke="#CCCCCC" stroke-width="4" stroke-linecap="round" stroke-linejoin="round" stroke-miterlimit="10" points="
	190.7,33.5 201.7,42.9 190.7,52.3 "/>
<path fill="#4D4D4D" d="M247,58.2c0,2.1-1.7,3.8-3.8,3.8h-22.5c-2.1,0-3.8-1.7-3.8-3.8V27.8c0-2.1,1.7-3.8,3.8-3.8h22.5
	c2.1,0,3.8,1.7,3.8,3.8V58.2z"/>
<polygon opacity="4.000000e-02" fill="#FFFFFF" points="170,15 418,157.4 418,15 "/>
<path fill="#1D80C2" d="M45.5,216c0,1-0.1,2.2-0.1,3.5c0,36.4,16,60.1,39.4,60.1c25,0,39.4-23.7,39.4-60.1c0-1.2,0-2.5-0.1-3.5H45.5
	z"/>
<polygon fill="#C1EBC3" points="33,266 52,266 52,247.6 42.5,241.9 33,248.3 "/>
<path fill="none" stroke="#1D80C2" stroke-width="5" stroke-miterlimit="10" d="M47,226.9c0,0-16-2.2-16,13.1s25.3,18,25.3,18"/>
<ellipse fill="#47A8EB" cx="84.9" cy="214.7" rx="39.4" ry="29.1"/>
<path fill="#6B4C28" d="M117.6,214.7c0,13.3-14.6,22.3-32.7,22.3c-18.1,0-32.7-8.9-32.7-22.3c0-13.3,14.6-22.3,32.7-22.3
	C102.9,192.4,117.6,201.4,117.6,214.7z"/>
<path fill="#8F6739" d="M116.4,221.2c-3.8-5.6-16.5-11.1-31.5-11.1c-15,0-27.6,5.5-31.5,11.1c3.8,10.2,16.5,17.7,31.5,17.7
	C99.9,238.9,112.5,231.4,116.4,221.2z"/>
<path fill="none" stroke="#FFF5E6" stroke-width="2" stroke-linecap="round" stroke-miterlimit="10" d="M67.9,223.9
	c0,0-6.6-4.5-16.7-0.7c-10.1,3.8-8.4,21.4-8.4,21.4"/>
<rect x="33" y="266" fill="#45AD72" width="19" height="4"/>
<polygon fill="#D1A164" points="461,308 469,308 469,180 461,187.5 "/>
</svg>
